<svg width="32" height="32" viewBox="0 0 32 32" fill="none" xmlns="http://www.w3.org/2000/svg">
<rect width="32" height="32" rx="4" fill="#DCB47A"/>
<path d="M20 22C20.5304 22 21.0391 22.2107 21.4142 22.5858C21.7893 22.9609 22 23.4696 22 24C22 24.5304 21.7893 25.0391 21.4142 25.4142C21.0391 25.7893 20.5304 26 20 26C19.4696 26 18.9609 25.7893 18.5858 25.4142C18.2107 25.0391 18 24.5304 18 24C18 23.4696 18.2107 22.9609 18.5858 22.5858C18.9609 22.2107 19.4696 22 20 22ZM20 23C19.7348 23 19.4804 23.1054 19.2929 23.2929C19.1054 23.4804 19 23.7348 19 24C19 24.2652 19.1054 24.5196 19.2929 24.7071C19.4804 24.8946 19.7348 25 20 25C20.2652 25 20.5196 24.8946 20.7071 24.7071C20.8946 24.5196 21 24.2652 21 24C21 23.7348 20.8946 23.4804 20.7071 23.2929C20.5196 23.1054 20.2652 23 20 23ZM11 22C11.5304 22 12.0391 22.2107 12.4142 22.5858C12.7893 22.9609 13 23.4696 13 24C13 24.5304 12.7893 25.0391 12.4142 25.4142C12.0391 25.7893 11.5304 26 11 26C10.4696 26 9.96086 25.7893 9.58579 25.4142C9.21071 25.0391 9 24.5304 9 24C9 23.4696 9.21071 22.9609 9.58579 22.5858C9.96086 22.2107 10.4696 22 11 22ZM11 23C10.7348 23 10.4804 23.1054 10.2929 23.2929C10.1054 23.4804 10 23.7348 10 24C10 24.2652 10.1054 24.5196 10.2929 24.7071C10.4804 24.8946 10.7348 25 11 25C11.2652 25 11.5196 24.8946 11.7071 24.7071C11.8946 24.5196 12 24.2652 12 24C12 23.7348 11.8946 23.4804 11.7071 23.2929C11.5196 23.1054 11.2652 23 11 23ZM22 10H8.273L10.82 16H19C19.1555 16.0002 19.3089 15.964 19.4478 15.8942C19.5868 15.8244 19.7074 15.7229 19.8 15.598L22.8 11.598H22.801C22.9119 11.4494 22.9793 11.2728 22.9956 11.0881C23.012 10.9033 22.9766 10.7177 22.8935 10.5519C22.8104 10.3861 22.6828 10.2467 22.525 10.1492C22.3672 10.0518 22.1855 10.0001 22 10ZM19 17H10.866L10.1 18.56L10 19C10 19.2652 10.1054 19.5196 10.2929 19.7071C10.4804 19.8946 10.7348 20 11 20H22V21H11C10.6518 21.0002 10.3095 20.9094 10.0071 20.7367C9.70474 20.564 9.45269 20.3153 9.27591 20.0153C9.09912 19.7153 9.00374 19.3743 8.9992 19.0261C8.99465 18.6779 9.08111 18.3345 9.25 18.03L9.97 16.556L6.338 8H5V7H7L7.849 9H22C22.3779 9.00004 22.748 9.10712 23.0675 9.30885C23.3871 9.51059 23.6429 9.79871 23.8054 10.1399C23.9679 10.481 24.0305 10.8612 23.9858 11.2364C23.9411 11.6117 23.7911 11.9665 23.553 12.26L20.639 16.146C20.4548 16.4098 20.2095 16.6252 19.9242 16.7739C19.6388 16.9226 19.3218 17.0001 19 17Z" fill="white"/>
</svg>
